<svg aria-hidden="true" style="width:0;height:0;position:absolute;overflow:hidden" xmlns="http://www.w3.org/2000/svg"><defs><symbol id="icon-angel-up" viewBox="0 0 32 32"><path d="M31.681 21.933 16.738 6.991c-.213-.214-.459-.321-.737-.321s-.524.107-.738.321L.321 21.933c-.214.214-.321.46-.321.738s.107.524.321.737l1.603 1.603c.214.214.46.321.738.321s.524-.107.738-.321L16.002 12.41l12.602 12.602c.214.214.46.32.737.32s.524-.107.738-.32l1.603-1.603c.214-.214.32-.46.32-.737s-.106-.524-.32-.738z"/></symbol><symbol id="icon-angel-right" viewBox="0 0 32 32"><path d="M24.918 14.844 10.553.479a1.636 1.636 0 0 0-2.314 0L7.082 1.636a1.636 1.636 0 0 0 0 2.314l12.05 12.051L7.082 28.05a1.637 1.637 0 0 0 0 2.315l1.157 1.157a1.636 1.636 0 0 0 2.314 0l14.365-14.365a1.634 1.634 0 0 0 0-2.312z"/></symbol></defs></svg>