<svg aria-hidden="true" style="position: absolute; width: 0; height: 0; overflow: hidden;" version="1.1" xmlns="http://www.w3.org/2000/svg" xmlns:xlink="http://www.w3.org/1999/xlink">
<defs>
<symbol id="icon-angel-up" viewBox="0 0 32 32">
<path d="M31.681 21.933l-14.943-14.942c-0.213-0.214-0.459-0.321-0.737-0.321s-0.524 0.107-0.738 0.321l-14.942 14.942c-0.214 0.214-0.321 0.46-0.321 0.738s0.107 0.524 0.321 0.737l1.603 1.603c0.214 0.214 0.46 0.321 0.738 0.321s0.524-0.107 0.738-0.321l12.602-12.601 12.602 12.602c0.214 0.214 0.46 0.32 0.737 0.32s0.524-0.107 0.738-0.32l1.603-1.603c0.214-0.214 0.32-0.46 0.32-0.737s-0.106-0.524-0.32-0.738z"></path>
</symbol>
<symbol id="icon-angel-right" viewBox="0 0 32 32">
<path d="M24.918 14.844l-14.365-14.365c-0.639-0.639-1.675-0.639-2.314 0l-1.157 1.157c-0.639 0.639-0.639 1.675 0 2.314l12.050 12.051-12.050 12.049c-0.639 0.64-0.639 1.677 0 2.315l1.157 1.157c0.639 0.639 1.675 0.639 2.314 0l14.365-14.365c0.639-0.639 0.639-1.674 0-2.312z"></path>
</symbol>
</defs>
</svg>